<?xml version="1.0" standalone="no"?>
<!DOCTYPE svg PUBLIC "-//W3C//DTD SVG 20010904//EN"
 "http://www.w3.org/TR/2001/REC-SVG-20010904/DTD/svg10.dtd">
<svg version="1.0" xmlns="http://www.w3.org/2000/svg"
 width="512.000000pt" height="512.000000pt" viewBox="0 0 512.000000 512.000000"
 preserveAspectRatio="xMidYMid meet">
 <defs>
    <linearGradient id="lgrad" x1="0%" y1="50%" x2="100%" y2="50%" >
        <stop offset="0%" style="stop-color:rgb(207,10,181);stop-opacity:1.00" />
        <stop offset="50%" style="stop-color:rgb(2,107,120);stop-opacity:1.00" />
        <stop offset="100%" style="stop-color:rgb(12,71,207);stop-opacity:1.00" />
    </linearGradient>
</defs>

<g transform="translate(0.000000,512.000000) scale(0.100000,-0.100000)"
fill="#lgrad" stroke="none">
<path fill="url(#lgrad)" d="M4760 5113 c-862 -41 -1642 -242 -2144 -551 -215 -132 -404 -298
-611 -532 -160 -182 -226 -278 -560 -805 -220 -347 -481 -744 -674 -1024 -50
-73 -99 -147 -108 -164 -23 -44 -13 -126 20 -174 15 -21 284 -295 599 -610
395 -395 585 -577 610 -588 61 -25 117 -20 176 18 29 17 213 140 410 273 196
133 526 348 732 479 545 346 624 401 820 571 415 362 644 710 824 1257 151
455 234 947 262 1557 5 123 4 151 -10 185 -22 52 -43 74 -91 96 -40 19 -80 20
-255 12z m-1245 -1228 c181 -60 308 -188 372 -372 22 -65 27 -95 27 -183 0
-88 -5 -118 -27 -183 -47 -135 -127 -239 -241 -312 -30 -19 -90 -47 -133 -62
-65 -22 -95 -27 -183 -27 -88 0 -118 5 -183 27 -184 64 -312 191 -372 371 -34
101 -41 201 -21 296 74 351 427 558 761 445z"/>
<path fill="url(#lgrad)" d="M1200 3440 c-77 -13 -229 -68 -330 -120 -177 -91 -355 -223 -547
-404 -103 -98 -293 -307 -293 -323 0 -4 94 -102 208 -216 l208 -208 45 70 c24
39 152 232 285 429 221 327 504 764 504 777 0 6 -21 5 -80 -5z"/>
<path fill="url(#lgrad)" d="M545 1522 c-93 -80 -150 -144 -229 -260 -185 -272 -306 -661 -310
-997 -1 -146 13 -183 89 -230 48 -29 51 -30 174 -28 414 5 877 180 1159 438
70 65 162 174 162 193 0 5 -9 17 -20 27 -19 17 -24 16 -147 -32 -258 -101
-521 -164 -845 -201 l-158 -19 0 38 c0 52 27 263 51 394 39 215 134 535 195
656 l23 46 -23 22 c-12 11 -26 21 -32 21 -5 0 -45 -31 -89 -68z"/>
<path fill="url(#lgrad)" d="M3175 1112 c-143 -92 -396 -260 -562 -372 -167 -113 -335 -225 -373
-249 l-71 -45 208 -208 c114 -114 212 -208 217 -208 16 0 207 173 312 284 259
272 419 515 498 758 35 107 54 208 39 208 -4 -1 -125 -76 -268 -168z"/>
</g>
</svg>
